<?xml version="1.0" encoding="iso-8859-1"?>
<!-- Uploaded to: SVG Repo, www.svgrepo.com, Generator: SVG Repo Mixer Tools -->
<svg fill="#ffffff" height="64px" width="64px" version="1.1" id="Layer_1" xmlns="http://www.w3.org/2000/svg" xmlns:xlink="http://www.w3.org/1999/xlink" 
	 viewBox="0 0 512 512" xml:space="preserve">
<g>
	<g>
		<path d="M256,202.419c-29.545,0-53.581,24.037-53.581,53.581s24.037,53.581,53.581,53.581s53.581-24.037,53.581-53.581
			S285.545,202.419,256,202.419z M256,273.86c-9.864,0-17.86-7.997-17.86-17.86s7.997-17.86,17.86-17.86s17.86,7.997,17.86,17.86
			S265.864,273.86,256,273.86z"/>
	</g>
</g>
<g>
	<g>
		<path d="M487.044,145.47l-75.532,75.531l-25.258-25.258l82.396-82.396c-5.912-8.775-12.401-17.221-19.442-25.298l-118.741,118.74
			c9.364,14.12,14.835,31.037,14.835,49.212c0,49.241-40.061,89.302-89.302,89.302c-18.176,0-35.091-5.471-49.212-14.833
			L88.049,449.21C134.63,489.821,193.609,512,256,512c68.381,0,132.668-26.629,181.019-74.981C485.371,388.668,512,324.381,512,256
			C512,217.105,503.372,179.537,487.044,145.47z"/>
	</g>
</g>
<g>
	<g>
		<path d="M256,0C187.619,0,123.332,26.629,74.981,74.981C26.629,123.332,0,187.619,0,256c0,38.895,8.628,76.463,24.956,110.53
			l75.532-75.532l25.258,25.258L43.35,398.653c5.912,8.775,12.401,17.221,19.442,25.298L181.53,305.212
			c-9.361-14.12-14.833-31.037-14.833-49.212c0-49.241,40.061-89.302,89.302-89.302c18.176,0,35.091,5.471,49.212,14.833
			l118.74-118.74C377.37,22.179,318.391,0,256,0z"/>
	</g>
</g>
</svg>